<mxfile host="app.diagrams.net" modified="2020-06-24T21:02:37.267Z" agent="5.0 (Windows)" etag="Qxn9osoEUqN6YGmrhJEj" version="13.3.1" type="github">
  <diagram id="gfcEc56jlt7qFINypGX5" name="Page-1">
    <mxGraphModel dx="1422" dy="801" grid="1" gridSize="10" guides="1" tooltips="1" connect="1" arrows="1" fold="1" page="1" pageScale="1" pageWidth="850" pageHeight="1100" math="0" shadow="0">
      <root>
        <mxCell id="0" />
        <mxCell id="1" parent="0" />
        <mxCell id="tUgpgF0Boc2eyNkSF1IM-2" value="Student" style="shape=umlActor;verticalLabelPosition=bottom;labelBackgroundColor=#ffffff;verticalAlign=top;html=1;outlineConnect=0;" parent="1" vertex="1">
          <mxGeometry x="10" y="130" width="30" height="60" as="geometry" />
        </mxCell>
        <mxCell id="tUgpgF0Boc2eyNkSF1IM-3" value="Login" style="ellipse;whiteSpace=wrap;html=1;" parent="1" vertex="1">
          <mxGeometry x="160" y="10" width="80" height="40" as="geometry" />
        </mxCell>
        <mxCell id="tUgpgF0Boc2eyNkSF1IM-8" value="" style="endArrow=classic;html=1;entryX=0;entryY=0.5;entryDx=0;entryDy=0;" parent="1" source="tUgpgF0Boc2eyNkSF1IM-2" target="tUgpgF0Boc2eyNkSF1IM-3" edge="1">
          <mxGeometry width="50" height="50" relative="1" as="geometry">
            <mxPoint x="210" y="210" as="sourcePoint" />
            <mxPoint x="260" y="160" as="targetPoint" />
          </mxGeometry>
        </mxCell>
        <mxCell id="tUgpgF0Boc2eyNkSF1IM-9" value="" style="endArrow=classic;html=1;entryX=0;entryY=0.5;entryDx=0;entryDy=0;" parent="1" source="tUgpgF0Boc2eyNkSF1IM-2" target="tUgpgF0Boc2eyNkSF1IM-10" edge="1">
          <mxGeometry width="50" height="50" relative="1" as="geometry">
            <mxPoint x="140" y="190" as="sourcePoint" />
            <mxPoint x="160" y="120" as="targetPoint" />
          </mxGeometry>
        </mxCell>
        <mxCell id="tUgpgF0Boc2eyNkSF1IM-10" value="Add course" style="ellipse;whiteSpace=wrap;html=1;" parent="1" vertex="1">
          <mxGeometry x="160" y="110" width="80" height="40" as="geometry" />
        </mxCell>
        <mxCell id="tUgpgF0Boc2eyNkSF1IM-11" value="Search courses" style="ellipse;whiteSpace=wrap;html=1;" parent="1" vertex="1">
          <mxGeometry x="160" y="210" width="80" height="40" as="geometry" />
        </mxCell>
        <mxCell id="tUgpgF0Boc2eyNkSF1IM-12" value="" style="endArrow=classic;html=1;entryX=0;entryY=0.5;entryDx=0;entryDy=0;" parent="1" source="tUgpgF0Boc2eyNkSF1IM-2" target="tUgpgF0Boc2eyNkSF1IM-11" edge="1">
          <mxGeometry width="50" height="50" relative="1" as="geometry">
            <mxPoint x="100" y="240" as="sourcePoint" />
            <mxPoint x="150" y="190" as="targetPoint" />
          </mxGeometry>
        </mxCell>
        <mxCell id="tUgpgF0Boc2eyNkSF1IM-13" value="Logout" style="ellipse;whiteSpace=wrap;html=1;" parent="1" vertex="1">
          <mxGeometry x="160" y="60" width="80" height="40" as="geometry" />
        </mxCell>
        <mxCell id="tUgpgF0Boc2eyNkSF1IM-14" value="" style="endArrow=classic;html=1;entryX=0;entryY=0.5;entryDx=0;entryDy=0;" parent="1" source="tUgpgF0Boc2eyNkSF1IM-2" target="tUgpgF0Boc2eyNkSF1IM-13" edge="1">
          <mxGeometry width="50" height="50" relative="1" as="geometry">
            <mxPoint x="90" y="130" as="sourcePoint" />
            <mxPoint x="140" y="80" as="targetPoint" />
          </mxGeometry>
        </mxCell>
        <mxCell id="tUgpgF0Boc2eyNkSF1IM-15" value="Check for conflicts" style="ellipse;whiteSpace=wrap;html=1;" parent="1" vertex="1">
          <mxGeometry x="160" y="260" width="80" height="40" as="geometry" />
        </mxCell>
        <mxCell id="tUgpgF0Boc2eyNkSF1IM-16" value="Print schedule" style="ellipse;whiteSpace=wrap;html=1;" parent="1" vertex="1">
          <mxGeometry x="160" y="310" width="80" height="40" as="geometry" />
        </mxCell>
        <mxCell id="tUgpgF0Boc2eyNkSF1IM-17" value="" style="endArrow=classic;html=1;entryX=0;entryY=0.5;entryDx=0;entryDy=0;" parent="1" source="tUgpgF0Boc2eyNkSF1IM-2" target="tUgpgF0Boc2eyNkSF1IM-15" edge="1">
          <mxGeometry width="50" height="50" relative="1" as="geometry">
            <mxPoint x="110" y="230" as="sourcePoint" />
            <mxPoint x="80" y="280" as="targetPoint" />
          </mxGeometry>
        </mxCell>
        <mxCell id="tUgpgF0Boc2eyNkSF1IM-18" value="" style="endArrow=classic;html=1;entryX=0;entryY=0.5;entryDx=0;entryDy=0;" parent="1" source="tUgpgF0Boc2eyNkSF1IM-2" target="tUgpgF0Boc2eyNkSF1IM-16" edge="1">
          <mxGeometry width="50" height="50" relative="1" as="geometry">
            <mxPoint x="40" y="230.0011111111113" as="sourcePoint" />
            <mxPoint x="160" y="319" as="targetPoint" />
          </mxGeometry>
        </mxCell>
        <mxCell id="tUgpgF0Boc2eyNkSF1IM-19" value="&lt;p style=&quot;margin: 0px ; margin-top: 4px ; text-align: center ; text-decoration: underline&quot;&gt;&lt;b&gt;Login&lt;/b&gt;&lt;br&gt;&lt;/p&gt;&lt;hr&gt;&lt;p style=&quot;margin: 0px ; margin-left: 8px&quot;&gt;&lt;b&gt;Actors &lt;/b&gt;= Student, SQL Database&lt;br&gt;&lt;b&gt;Description &lt;/b&gt;= Allows student to gain access to CURSE using their &lt;br&gt;credentials and utilize other available functions&lt;br&gt;&lt;/p&gt;&lt;p style=&quot;margin: 0px ; margin-left: 8px&quot;&gt;&lt;b&gt;Data &lt;/b&gt;= Username, password&lt;br&gt;&lt;/p&gt;&lt;p style=&quot;margin: 0px ; margin-left: 8px&quot;&gt;&lt;b&gt;Stimulus &lt;/b&gt;= Typing info into text boxes, clicking Login button&lt;br&gt;&lt;/p&gt;&lt;p style=&quot;margin: 0px ; margin-left: 8px&quot;&gt;&lt;b&gt;Response &lt;/b&gt;= User&#39;s credentials are confirmed with &lt;br&gt;database and user is eithergranted or denied access&lt;br&gt;&lt;/p&gt;" style="verticalAlign=top;align=left;overflow=fill;fontSize=12;fontFamily=Helvetica;html=1;" parent="1" vertex="1">
          <mxGeometry x="20" y="380" width="380" height="185" as="geometry" />
        </mxCell>
        <mxCell id="tUgpgF0Boc2eyNkSF1IM-20" value="SQL Database" style="shape=umlActor;verticalLabelPosition=bottom;labelBackgroundColor=#ffffff;verticalAlign=top;html=1;" parent="1" vertex="1">
          <mxGeometry x="390" y="130" width="30" height="60" as="geometry" />
        </mxCell>
        <mxCell id="tUgpgF0Boc2eyNkSF1IM-25" value="" style="endArrow=classic;html=1;exitX=1;exitY=0.5;exitDx=0;exitDy=0;" parent="1" source="tUgpgF0Boc2eyNkSF1IM-10" target="tUgpgF0Boc2eyNkSF1IM-20" edge="1">
          <mxGeometry width="50" height="50" relative="1" as="geometry">
            <mxPoint x="280" y="140" as="sourcePoint" />
            <mxPoint x="330" y="90" as="targetPoint" />
          </mxGeometry>
        </mxCell>
        <mxCell id="tUgpgF0Boc2eyNkSF1IM-27" value="" style="endArrow=classic;html=1;exitX=1;exitY=0.5;exitDx=0;exitDy=0;" parent="1" source="tUgpgF0Boc2eyNkSF1IM-15" target="tUgpgF0Boc2eyNkSF1IM-20" edge="1">
          <mxGeometry width="50" height="50" relative="1" as="geometry">
            <mxPoint x="330" y="320" as="sourcePoint" />
            <mxPoint x="380" y="270" as="targetPoint" />
          </mxGeometry>
        </mxCell>
        <mxCell id="tUgpgF0Boc2eyNkSF1IM-29" value="" style="endArrow=classic;html=1;exitX=1;exitY=0.5;exitDx=0;exitDy=0;" parent="1" source="tUgpgF0Boc2eyNkSF1IM-11" edge="1">
          <mxGeometry width="50" height="50" relative="1" as="geometry">
            <mxPoint x="260" y="200" as="sourcePoint" />
            <mxPoint x="370" y="160" as="targetPoint" />
          </mxGeometry>
        </mxCell>
        <mxCell id="tUgpgF0Boc2eyNkSF1IM-30" value="" style="endArrow=classic;html=1;exitX=1;exitY=0.5;exitDx=0;exitDy=0;" parent="1" source="tUgpgF0Boc2eyNkSF1IM-16" target="tUgpgF0Boc2eyNkSF1IM-20" edge="1">
          <mxGeometry width="50" height="50" relative="1" as="geometry">
            <mxPoint x="310" y="350" as="sourcePoint" />
            <mxPoint x="360" y="300" as="targetPoint" />
          </mxGeometry>
        </mxCell>
        <mxCell id="tUgpgF0Boc2eyNkSF1IM-34" value="&lt;p style=&quot;margin: 0px ; margin-top: 4px ; text-align: center ; text-decoration: underline&quot;&gt;&lt;b&gt;Logout&lt;/b&gt;&lt;br&gt;&lt;/p&gt;&lt;hr&gt;&lt;p style=&quot;margin: 0px ; margin-left: 8px&quot;&gt;&lt;b&gt;Actors &lt;/b&gt;= Student, SQL Database&lt;br&gt;&lt;b&gt;Description &lt;/b&gt;= Securely logs student out of system &lt;br&gt;&lt;/p&gt;&lt;p style=&quot;margin: 0px ; margin-left: 8px&quot;&gt;&lt;b&gt;Data &lt;/b&gt;= None&lt;br&gt;&lt;/p&gt;&lt;p style=&quot;margin: 0px ; margin-left: 8px&quot;&gt;&lt;b&gt;Stimulus &lt;/b&gt;= Clicking Logout button&lt;br&gt;&lt;/p&gt;&lt;p style=&quot;margin: 0px ; margin-left: 8px&quot;&gt;&lt;b&gt;Response &lt;/b&gt;= Student confirms logout and they&lt;br&gt;are brought back to the login page&lt;/p&gt;" style="verticalAlign=top;align=left;overflow=fill;fontSize=12;fontFamily=Helvetica;html=1;" parent="1" vertex="1">
          <mxGeometry x="420" y="380" width="370" height="185" as="geometry" />
        </mxCell>
        <mxCell id="tUgpgF0Boc2eyNkSF1IM-35" value="" style="endArrow=classic;html=1;exitX=1;exitY=0.5;exitDx=0;exitDy=0;" parent="1" source="tUgpgF0Boc2eyNkSF1IM-3" target="tUgpgF0Boc2eyNkSF1IM-20" edge="1">
          <mxGeometry width="50" height="50" relative="1" as="geometry">
            <mxPoint x="320" y="90" as="sourcePoint" />
            <mxPoint x="370" y="40" as="targetPoint" />
          </mxGeometry>
        </mxCell>
        <mxCell id="tUgpgF0Boc2eyNkSF1IM-36" value="" style="endArrow=classic;html=1;exitX=1;exitY=0.5;exitDx=0;exitDy=0;" parent="1" source="tUgpgF0Boc2eyNkSF1IM-13" edge="1">
          <mxGeometry width="50" height="50" relative="1" as="geometry">
            <mxPoint x="400" y="90" as="sourcePoint" />
            <mxPoint x="370" y="150" as="targetPoint" />
          </mxGeometry>
        </mxCell>
        <mxCell id="tUgpgF0Boc2eyNkSF1IM-38" value="&lt;p style=&quot;margin: 0px ; margin-top: 4px ; text-align: center ; text-decoration: underline&quot;&gt;&lt;b&gt;Add Course&lt;/b&gt;&lt;br&gt;&lt;/p&gt;&lt;hr&gt;&lt;p style=&quot;margin: 0px ; margin-left: 8px&quot;&gt;&lt;b&gt;Actors &lt;/b&gt;= Student, SQL Database&lt;br&gt;&lt;b&gt;Description &lt;/b&gt;= Student adds a course to their schedule when they&lt;br&gt;type in the CRN&lt;br&gt;&lt;/p&gt;&lt;p style=&quot;margin: 0px ; margin-left: 8px&quot;&gt;&lt;b&gt;Data &lt;/b&gt;= CRN, time slot, day, department, student schedule&lt;br&gt;&lt;/p&gt;&lt;p style=&quot;margin: 0px ; margin-left: 8px&quot;&gt;&lt;b&gt;Stimulus &lt;/b&gt;= Typing CRN in and clicking Add&lt;br&gt;&lt;/p&gt;&lt;p style=&quot;margin: 0px ; margin-left: 8px&quot;&gt;&lt;b&gt;Response &lt;/b&gt;= Either adds course or shows an error message&lt;br&gt;because of a time conflict, wrong field of study or the CRN&lt;br&gt; doesn&#39;t exist&lt;br&gt;&lt;/p&gt;" style="verticalAlign=top;align=left;overflow=fill;fontSize=12;fontFamily=Helvetica;html=1;" parent="1" vertex="1">
          <mxGeometry x="20" y="580" width="370" height="185" as="geometry" />
        </mxCell>
        <mxCell id="tUgpgF0Boc2eyNkSF1IM-39" value="Drop course" style="ellipse;whiteSpace=wrap;html=1;" parent="1" vertex="1">
          <mxGeometry x="160" y="160" width="80" height="40" as="geometry" />
        </mxCell>
        <mxCell id="tUgpgF0Boc2eyNkSF1IM-40" value="" style="endArrow=classic;html=1;entryX=0;entryY=0.5;entryDx=0;entryDy=0;" parent="1" target="tUgpgF0Boc2eyNkSF1IM-39" edge="1">
          <mxGeometry width="50" height="50" relative="1" as="geometry">
            <mxPoint x="40" y="160" as="sourcePoint" />
            <mxPoint x="130" y="160" as="targetPoint" />
          </mxGeometry>
        </mxCell>
        <mxCell id="tUgpgF0Boc2eyNkSF1IM-41" value="" style="endArrow=classic;html=1;exitX=1;exitY=0.5;exitDx=0;exitDy=0;" parent="1" source="tUgpgF0Boc2eyNkSF1IM-39" edge="1">
          <mxGeometry width="50" height="50" relative="1" as="geometry">
            <mxPoint x="260" y="200" as="sourcePoint" />
            <mxPoint x="360" y="160" as="targetPoint" />
          </mxGeometry>
        </mxCell>
        <mxCell id="tUgpgF0Boc2eyNkSF1IM-42" value="&lt;p style=&quot;margin: 0px ; margin-top: 4px ; text-align: center ; text-decoration: underline&quot;&gt;&lt;b&gt;Drop Course&lt;/b&gt;&lt;br&gt;&lt;/p&gt;&lt;hr&gt;&lt;p style=&quot;margin: 0px ; margin-left: 8px&quot;&gt;&lt;b&gt;Actors &lt;/b&gt;= Student, SQL Database&lt;br&gt;&lt;b&gt;Description &lt;/b&gt;= Student removes a course from their schedule&lt;br&gt; when they type in the CRN&lt;br&gt;&lt;/p&gt;&lt;p style=&quot;margin: 0px ; margin-left: 8px&quot;&gt;&lt;b&gt;Data &lt;/b&gt;= CRN, student schedule&lt;br&gt;&lt;/p&gt;&lt;p style=&quot;margin: 0px ; margin-left: 8px&quot;&gt;&lt;b&gt;Stimulus &lt;/b&gt;= Clicking checkbox next to course and clicking Drop&lt;br&gt;&lt;/p&gt;&lt;p style=&quot;margin: 0px ; margin-left: 8px&quot;&gt;&lt;b&gt;Response &lt;/b&gt;= Either drops course or shows an error message&lt;br&gt;because they are not registered for that course or the CRN&lt;br&gt; doesn&#39;t exist&lt;br&gt;&lt;/p&gt;" style="verticalAlign=top;align=left;overflow=fill;fontSize=12;fontFamily=Helvetica;html=1;" parent="1" vertex="1">
          <mxGeometry x="420" y="580" width="370" height="185" as="geometry" />
        </mxCell>
        <mxCell id="tUgpgF0Boc2eyNkSF1IM-43" value="&lt;p style=&quot;margin: 0px ; margin-top: 4px ; text-align: center ; text-decoration: underline&quot;&gt;&lt;b&gt;Search Courses&lt;/b&gt;&lt;br&gt;&lt;/p&gt;&lt;hr&gt;&lt;p style=&quot;margin: 0px ; margin-left: 8px&quot;&gt;&lt;b&gt;Actors &lt;/b&gt;= Student, SQL Database&lt;br&gt;&lt;b&gt;Description &lt;/b&gt;= Shows student matching courses when given &lt;br&gt;search parameters such as time slot, department, title, etc.&lt;br&gt;&lt;/p&gt;&lt;p style=&quot;margin: 0px ; margin-left: 8px&quot;&gt;&lt;b&gt;Data &lt;/b&gt;= CRN, time slot, day, instructor, department, semester, year&lt;br&gt;&lt;/p&gt;&lt;p style=&quot;margin: 0px ; margin-left: 8px&quot;&gt;&lt;b&gt;Stimulus &lt;/b&gt;= Clicking Search Courses then typing in preferences&lt;br&gt;&lt;/p&gt;&lt;p style=&quot;margin: 0px ; margin-left: 8px&quot;&gt;&lt;b&gt;Response &lt;/b&gt;= Contacts database and either shows courses that&lt;br&gt;match the criteria or shows that none have been found&lt;br&gt;&lt;/p&gt;" style="verticalAlign=top;align=left;overflow=fill;fontSize=12;fontFamily=Helvetica;html=1;" parent="1" vertex="1">
          <mxGeometry x="20" y="780" width="370" height="185" as="geometry" />
        </mxCell>
        <mxCell id="tUgpgF0Boc2eyNkSF1IM-44" value="&lt;p style=&quot;margin: 0px ; margin-top: 4px ; text-align: center ; text-decoration: underline&quot;&gt;&lt;b&gt;Search for Conflict&lt;/b&gt;&lt;br&gt;&lt;/p&gt;&lt;hr&gt;&lt;p style=&quot;margin: 0px ; margin-left: 8px&quot;&gt;&lt;b&gt;Actors &lt;/b&gt;= Student, SQL Database&lt;br&gt;&lt;b&gt;Description &lt;/b&gt;= Searches student&#39;s schedule for time conflicts&lt;br&gt;&lt;/p&gt;&lt;p style=&quot;margin: 0px ; margin-left: 8px&quot;&gt;&lt;b&gt;Data &lt;/b&gt;= CRN, student schedule&lt;br&gt;&lt;/p&gt;&lt;p style=&quot;margin: 0px ; margin-left: 8px&quot;&gt;&lt;b&gt;Stimulus &lt;/b&gt;= When student tries to add a course this function&lt;br&gt;is called&lt;br&gt;&lt;/p&gt;&lt;p style=&quot;margin: 0px ; margin-left: 8px&quot;&gt;&lt;b&gt;Response &lt;/b&gt;= Shows no errors in schedule or presents which &lt;br&gt;courses are happening simultaneously&lt;br&gt;&lt;/p&gt;" style="verticalAlign=top;align=left;overflow=fill;fontSize=12;fontFamily=Helvetica;html=1;" parent="1" vertex="1">
          <mxGeometry x="420" y="780" width="370" height="185" as="geometry" />
        </mxCell>
        <mxCell id="tUgpgF0Boc2eyNkSF1IM-45" value="&lt;p style=&quot;margin: 0px ; margin-top: 4px ; text-align: center ; text-decoration: underline&quot;&gt;&lt;b&gt;Print Schedule&lt;/b&gt;&lt;br&gt;&lt;/p&gt;&lt;hr&gt;&lt;p style=&quot;margin: 0px ; margin-left: 8px&quot;&gt;&lt;b&gt;Actors &lt;/b&gt;= Student, SQL Database&lt;br&gt;&lt;b&gt;Description &lt;/b&gt;= Prints information about each course in student&#39;s&lt;br&gt;semester schdule&lt;br&gt;&lt;/p&gt;&lt;p style=&quot;margin: 0px ; margin-left: 8px&quot;&gt;&lt;b&gt;Data &lt;/b&gt;= CRN, time slot, dept, instructor, year, credits, semester, title&lt;br&gt;&lt;/p&gt;&lt;p style=&quot;margin: 0px ; margin-left: 8px&quot;&gt;&lt;b&gt;Stimulus &lt;/b&gt;= Clicking Print Schedule button and choosing &lt;br&gt;desired semester&lt;br&gt;&lt;/p&gt;&lt;p style=&quot;margin: 0px ; margin-left: 8px&quot;&gt;&lt;b&gt;Response &lt;/b&gt;= A window appears that presents the courses &lt;br&gt;in a neat and readable way&lt;br&gt;&lt;/p&gt;" style="verticalAlign=top;align=left;overflow=fill;fontSize=12;fontFamily=Helvetica;html=1;" parent="1" vertex="1">
          <mxGeometry x="450" y="150" width="380" height="185" as="geometry" />
        </mxCell>
      </root>
    </mxGraphModel>
  </diagram>
</mxfile>
